<?xml version="1.0" encoding="UTF-8" standalone="no"?>
<svg
   width="116"
   height="136"
   viewBox="0 0 30.691663 35.983329"
   version="1.1"
   id="svg8"
   inkscape:version="1.3.2 (091e20e, 2023-11-25)"
   sodipodi:docname="oxycs-logo.svg"
   xmlns:inkscape="http://www.inkscape.org/namespaces/inkscape"
   xmlns:sodipodi="http://sodipodi.sourceforge.net/DTD/sodipodi-0.dtd"
   xmlns:xlink="http://www.w3.org/1999/xlink"
   xmlns="http://www.w3.org/2000/svg"
   xmlns:svg="http://www.w3.org/2000/svg"
   xmlns:rdf="http://www.w3.org/1999/02/22-rdf-syntax-ns#"
   xmlns:cc="http://creativecommons.org/ns#"
   xmlns:dc="http://purl.org/dc/elements/1.1/">
  <defs
     id="defs2" />
  <sodipodi:namedview
     id="base"
     pagecolor="#3d3d3d"
     bordercolor="#666666"
     borderopacity="1.0"
     inkscape:pageopacity="0"
     inkscape:pageshadow="2"
     inkscape:zoom="3.9291406"
     inkscape:cx="-49.501919"
     inkscape:cy="15.525023"
     inkscape:document-units="mm"
     inkscape:current-layer="svg8"
     inkscape:document-rotation="0"
     showgrid="false"
     units="px"
     inkscape:pagecheckerboard="true"
     inkscape:snap-page="false"
     inkscape:snap-object-midpoints="true"
     inkscape:snap-midpoints="true"
     inkscape:snap-bbox="true"
     inkscape:window-width="2240"
     inkscape:window-height="1453"
     inkscape:window-x="0"
     inkscape:window-y="70"
     inkscape:window-maximized="0"
     inkscape:showpageshadow="2"
     inkscape:deskcolor="#d1d1d1" />
  <metadata
     id="metadata5">
    <rdf:RDF>
      <cc:Work
         rdf:about="">
        <dc:format>image/svg+xml</dc:format>
        <dc:type
           rdf:resource="http://purl.org/dc/dcmitype/StillImage" />
      </cc:Work>
    </rdf:RDF>
  </metadata>
  <g
     id="g2"
     transform="matrix(1.0108865,0,0,1.0108902,-0.12198391,-0.12775906)"
     inkscape:label="g2">
    <g
       inkscape:label="Template"
       id="layer1-7"
       style="display:none">
      <image
         xlink:href="../../../../Downloads/oxyos-logo_files/oxyosLogo.jpg"
         y="-0.012007753"
         x="0.087900467"
         width="29.432476"
         height="35.739433"
         preserveAspectRatio="none"
         id="image32" />
    </g>
    <g
       id="layer2"
       inkscape:label="Logo"
       style="display:inline">
      <path
         style="fill:none;fill-opacity:1;stroke:#fd7346;stroke-width:0.865;stroke-linecap:round;stroke-linejoin:miter;stroke-miterlimit:4;stroke-dasharray:none;stroke-opacity:1"
         d="m 14.657925,0.58177787 c -2.10814,-0.0802513 -3.722175,1.58642953 -3.912043,3.49268743 -0.179273,2.5973384 2.026677,4.2385446 4.013241,4.3037034 4.803216,0.4329394 8.283754,3.9806393 8.387902,8.8080623 -0.124324,4.550081 -4.03559,8.003801 -7.153211,8.160269"
         id="path36"
         sodipodi:nodetypes="ccccc" />
      <path
         style="fill:#000000;fill-opacity:0;stroke:#000000;stroke-width:0.865;stroke-linecap:round;stroke-linejoin:miter;stroke-miterlimit:4;stroke-dasharray:none;stroke-opacity:1"
         d="M 13.773018,25.376467 C 10.777316,25.304976 6.2952209,22.264322 6.2567775,17.262082 6.4023814,12.693298 8.1811715,10.757126 10.80242,9.2634038"
         id="path38"
         sodipodi:nodetypes="ccc" />
      <path
         style="fill:none;stroke:#000000;stroke-width:0.865;stroke-linecap:round;stroke-linejoin:miter;stroke-miterlimit:4;stroke-dasharray:none;stroke-opacity:1"
         d="m 14.814485,3.7517122 0.02321,8.3858158"
         id="path46" />
    </g>
    <g
       id="layer3"
       inkscape:label="Lettering"
       style="display:inline">
      <path
         d="m 2.894357,35.605045 q -0.8164851,0 -1.4417679,-0.341063 Q 0.83247389,34.917751 0.49141053,34.292468 0.15034716,33.662017 0.15034716,32.835197 v -2.129062 q 0,-0.82682 0.34106337,-1.452103 0.34106336,-0.630451 0.96117857,-0.971514 0.6252828,-0.346231 1.4417679,-0.346231 0.816485,0 1.4366002,0.346231 0.6252829,0.341063 0.9663462,0.971514 0.3410634,0.625283 0.3410634,1.452103 v 2.129062 q 0,0.82682 -0.3410634,1.457271 -0.3410633,0.625283 -0.9663462,0.971514 -0.6201152,0.341063 -1.4366002,0.341063 z m 0,-1.41593 q 0.3824044,0 0.6717915,-0.160196 0.2893871,-0.165364 0.4444159,-0.465087 0.1601964,-0.299722 0.1601964,-0.692461 v -2.201409 q 0,-0.39274 -0.1601964,-0.692462 Q 3.8555356,29.677777 3.5661485,29.517581 3.2767614,29.352217 2.894357,29.352217 q -0.3824044,0 -0.6717915,0.165364 Q 1.9331784,29.677777 1.772982,29.9775 1.6179532,30.277222 1.6179532,30.669962 v 2.201409 q 0,0.392739 0.1550288,0.692461 0.1601964,0.299723 0.4495835,0.465087 0.2893871,0.160196 0.6717915,0.160196 z"
         style="font-style:normal;font-weight:bold;font-size:10.5833px;line-height:1.25;font-family:sans-serif;letter-spacing:0px;word-spacing:0px;fill:#000000;fill-opacity:1;stroke:none;stroke-width:0.265;stroke-miterlimit:4;stroke-dasharray:none"
         id="path906" />
      <path
         d="M 8.8681334,32.452793 8.7234398,32.209914 6.2378114,28.013801 h 1.4934441 l 1.6846463,2.847363 0.1963699,0.335895 2.5683103,4.330472 h -1.493444 z m 0.015503,-1.550288 1.6898136,-2.888704 h 1.493444 l -2.485628,4.24779 -1.9120219,3.26594 H 6.1757998 Z"
         style="font-style:normal;font-weight:bold;font-size:10.5833px;line-height:1.25;font-family:sans-serif;letter-spacing:0px;word-spacing:0px;display:inline;fill:#000000;fill-opacity:1;stroke:none;stroke-width:0.265;stroke-miterlimit:4;stroke-dasharray:none"
         id="path908" />
      <path
         d="m 15.766916,32.628492 v 2.899039 h -1.41593 v -2.899039 l -2.211744,-4.614691 h 1.483109 l 1.4366,3.234935 1.4366,-3.234935 h 1.483109 z"
         style="font-style:normal;font-weight:bold;font-size:10.5833px;line-height:1.25;font-family:sans-serif;letter-spacing:0px;word-spacing:0px;display:inline;fill:#000000;fill-opacity:1;stroke:none;stroke-width:0.265;stroke-miterlimit:4;stroke-dasharray:none"
         id="path910" />
      <g
         id="g917"
         style="font-style:normal;font-weight:normal;font-size:10.5833px;line-height:1.25;font-family:sans-serif;letter-spacing:0px;word-spacing:0px;display:inline;fill:#000000;fill-opacity:1;stroke:none;stroke-width:0.265;stroke-miterlimit:4;stroke-dasharray:none" />
      <g
         id="g923"
         style="font-style:normal;font-weight:normal;font-size:10.5833px;line-height:1.25;font-family:sans-serif;letter-spacing:0px;word-spacing:0px;fill:#000000;fill-opacity:1;stroke:none;stroke-width:0.265;stroke-miterlimit:4;stroke-dasharray:none">
        <path
           style="color:#000000;font-style:normal;font-variant:normal;font-weight:normal;font-stretch:normal;font-size:medium;line-height:1.25;font-family:sans-serif;font-variant-ligatures:normal;font-variant-position:normal;font-variant-caps:normal;font-variant-numeric:normal;font-variant-alternates:normal;font-variant-east-asian:normal;font-feature-settings:normal;font-variation-settings:normal;text-indent:0;text-align:start;text-decoration:none;text-decoration-line:none;text-decoration-style:solid;text-decoration-color:#000000;letter-spacing:0px;word-spacing:0px;text-transform:none;writing-mode:lr-tb;direction:ltr;text-orientation:mixed;dominant-baseline:auto;baseline-shift:baseline;text-anchor:start;white-space:normal;shape-padding:0;shape-margin:0;inline-size:0;clip-rule:nonzero;display:inline;overflow:visible;visibility:visible;isolation:auto;mix-blend-mode:normal;color-interpolation:sRGB;color-interpolation-filters:linearRGB;solid-color:#000000;solid-opacity:1;vector-effect:none;fill:#fd7346;fill-opacity:1;fill-rule:nonzero;stroke:none;stroke-width:0.265;stroke-linecap:butt;stroke-linejoin:miter;stroke-miterlimit:4;stroke-dasharray:none;stroke-dashoffset:0;stroke-opacity:1;color-rendering:auto;image-rendering:auto;shape-rendering:auto;text-rendering:auto;enable-background:accumulate;stop-color:#000000;stop-opacity:1"
           d="m 27.554272,35.605045 c -0.361733,0 -0.704519,-0.03445 -1.028357,-0.103352 -0.323838,-0.0689 -0.627006,-0.172255 -0.909503,-0.310058 -0.279051,-0.137803 -0.540878,-0.310058 -0.785479,-0.516763 v 0 l 0.656289,-0.80615 v 0 c 0.285942,0.248047 0.601167,0.434081 0.945675,0.558104 0.344509,0.124023 0.7183,0.186035 1.121375,0.186035 0.544323,0 0.966346,-0.09991 1.266069,-0.299723 0.299722,-0.20326 0.449583,-0.489202 0.449583,-0.857826 v -0.0052 c 0,-0.261827 -0.0689,-0.468532 -0.206705,-0.620116 -0.134358,-0.155029 -0.310057,-0.268716 -0.527098,-0.341063 -0.213595,-0.07579 -0.490924,-0.144694 -0.831987,-0.206705 -0.01033,-0.0035 -0.02239,-0.0052 -0.03617,-0.0052 -0.01033,0 -0.02067,-0.0017 -0.03101,-0.0052 l -0.07751,-0.0155 c -0.502983,-0.08613 -0.912948,-0.18259 -1.229895,-0.289387 -0.313503,-0.110243 -0.582219,-0.308335 -0.80615,-0.594277 -0.223931,-0.289387 -0.335896,-0.699352 -0.335896,-1.229895 v -0.0052 c 0,-0.465087 0.103353,-0.861271 0.310058,-1.188554 0.21015,-0.330728 0.51504,-0.582219 0.91467,-0.754474 0.39963,-0.172254 0.880219,-0.258381 1.441768,-0.258381 0.268717,0 0.532266,0.02928 0.790647,0.08785 0.261826,0.05857 0.518485,0.146416 0.769976,0.263549 0.254936,0.113687 0.504705,0.258381 0.749306,0.43408 v 0 l -0.599445,0.837156 v 0 c -0.285942,-0.21015 -0.571884,-0.366901 -0.857826,-0.470254 -0.282497,-0.106798 -0.566716,-0.160197 -0.852658,-0.160197 -0.513318,0 -0.912948,0.103353 -1.19889,0.310058 -0.282497,0.20326 -0.423745,0.492647 -0.423745,0.868161 v 0.0052 c 0,0.258381 0.07235,0.461641 0.21704,0.60978 0.148139,0.148139 0.330728,0.258381 0.547769,0.330728 0.220485,0.0689 0.525375,0.141248 0.91467,0.21704 0.01378,0.0035 0.02584,0.0069 0.03617,0.01034 0.01378,0 0.02756,0.0017 0.04134,0.0052 0.01723,0.0035 0.03617,0.0069 0.05684,0.01034 0.02067,0.0035 0.03962,0.0069 0.05684,0.01034 0.454751,0.09302 0.833711,0.20326 1.136878,0.330728 0.306612,0.127468 0.561548,0.334173 0.764808,0.620115 0.206705,0.282497 0.310058,0.670069 0.310058,1.162716 v 0.01033 c 0,0.458197 -0.10852,0.850936 -0.32556,1.178219 -0.217041,0.323838 -0.532266,0.571884 -0.945676,0.744138 -0.409965,0.168809 -0.906058,0.253214 -1.488277,0.253214 z"
           id="path925" />
        <path
           style="color:#000000;font-style:normal;font-variant:normal;font-weight:normal;font-stretch:normal;font-size:medium;line-height:1.25;font-family:sans-serif;font-variant-ligatures:normal;font-variant-position:normal;font-variant-caps:normal;font-variant-numeric:normal;font-variant-alternates:normal;font-variant-east-asian:normal;font-feature-settings:normal;font-variation-settings:normal;text-indent:0;text-align:start;text-decoration:none;text-decoration-line:none;text-decoration-style:solid;text-decoration-color:#000000;letter-spacing:0px;word-spacing:0px;text-transform:none;writing-mode:lr-tb;direction:ltr;text-orientation:mixed;dominant-baseline:auto;baseline-shift:baseline;text-anchor:start;white-space:normal;shape-padding:0;shape-margin:0;inline-size:0;clip-rule:nonzero;display:inline;overflow:visible;visibility:visible;isolation:auto;mix-blend-mode:normal;color-interpolation:sRGB;color-interpolation-filters:linearRGB;solid-color:#000000;solid-opacity:1;vector-effect:none;fill:#fd7346;fill-opacity:1;fill-rule:nonzero;stroke:none;stroke-width:0.265;stroke-linecap:butt;stroke-linejoin:miter;stroke-miterlimit:4;stroke-dasharray:none;stroke-dashoffset:0;stroke-opacity:1;color-rendering:auto;image-rendering:auto;shape-rendering:auto;text-rendering:auto;enable-background:accumulate;stop-color:#000000;stop-opacity:1"
           d="m 27.853516,27.802734 c -0.575097,0 -1.073794,0.08835 -1.494141,0.269532 -0.420184,0.181114 -0.749654,0.452613 -0.974609,0.80664 -0.221837,0.351241 -0.330078,0.773096 -0.330078,1.257813 v 0.0059 c -10e-7,0.549185 0.115366,0.990165 0.363281,1.310547 l 0.002,0.002 c 0.237341,0.303066 0.527225,0.517858 0.865234,0.636719 h 0.002 c 0.325865,0.109802 0.740739,0.208233 1.246094,0.294922 l 0.07813,0.01563 -0.01563,-0.0059 c 0.02295,0.0077 0.04711,0.01367 0.07227,0.01367 h 0.0039 l 0.0078,0.002 c 0.336505,0.06118 0.609119,0.129005 0.8125,0.201172 l 0.002,0.002 c 0.197886,0.06596 0.350837,0.164728 0.46875,0.300782 l 0.002,0.002 v 0.002 c 0.112261,0.123487 0.171875,0.290716 0.171875,0.529297 v 0.0059 c 0,0.332713 -0.121698,0.565671 -0.390625,0.748047 -0.26892,0.17928 -0.663296,0.277344 -1.191406,0.277344 -0.389485,0 -0.747159,-0.05929 -1.076172,-0.177735 -0.329013,-0.118444 -0.629995,-0.295253 -0.904297,-0.533203 l -0.103516,-0.08984 -0.824219,1.011718 0.09961,0.08398 c 0.252487,0.213369 0.523646,0.392512 0.8125,0.535156 0.292607,0.142735 0.605699,0.249301 0.939453,0.320312 0.33366,0.07099 0.686494,0.107422 1.056641,0.107422 h 0.152343 l -0.0039,-0.02539 c 0.523389,-0.01503 1.001747,-0.07816 1.390625,-0.238282 0.433023,-0.180426 0.771254,-0.445836 1.003906,-0.792968 h 0.002 c 0.232781,-0.351018 0.345704,-0.772836 0.345703,-1.251953 v -0.0098 c 0,-0.510429 -0.106293,-0.928264 -0.333984,-1.240234 -0.215791,-0.303572 -0.49148,-0.528996 -0.820312,-0.666016 h -0.002 c -0.314108,-0.131912 -0.70014,-0.243797 -1.160156,-0.337891 h -0.002 c -0.01879,-0.0037 -0.03877,-0.0081 -0.06055,-0.01172 -0.0165,-0.0027 -0.03126,-0.0051 -0.04492,-0.0078 l -0.0078,-0.002 c -0.01264,-0.0028 -0.02609,-0.0027 -0.03906,-0.0039 -0.01032,-0.0031 -0.01996,-0.0069 -0.03125,-0.0098 h -0.0039 l -0.0039,-0.002 c -0.385714,-0.0751 -0.686013,-0.1466 -0.898438,-0.212891 h -0.002 c -0.199091,-0.06662 -0.359685,-0.166326 -0.492187,-0.298828 -0.117013,-0.12047 -0.179688,-0.282764 -0.179688,-0.515625 v -0.0039 c 0,-0.342288 0.118044,-0.581052 0.369141,-0.761719 0.255434,-0.184651 0.625561,-0.285156 1.121094,-0.285156 0.269446,0 0.537976,0.05078 0.80664,0.152344 h 0.002 c 0.272221,0.09839 0.546908,0.249318 0.824219,0.453125 l 0.107422,0.07813 0.755859,-1.052735 -0.107421,-0.07813 c -0.250727,-0.180124 -0.50874,-0.328005 -0.771644,-0.445451 l -0.002,-0.002 c -0.259053,-0.120462 -0.524351,-0.210962 -0.794922,-0.271485 -0.268039,-0.06076 -0.54197,-0.0918 -0.820312,-0.0918 z m 0,0.265625 c 0.25909,0 0.512995,0.02761 0.761718,0.08398 0.252282,0.05643 0.500941,0.142588 0.744141,0.255859 h 0.002 c 0.207101,0.09236 0.408138,0.219917 0.609375,0.355469 l -0.445312,0.623047 c -0.255813,-0.175416 -0.51183,-0.32786 -0.771485,-0.421875 h -0.002 c -0.295726,-0.111562 -0.596633,-0.169922 -0.898437,-0.169922 -0.531104,0 -0.958941,0.107178 -1.275391,0.335937 -0.313897,0.225853 -0.478516,0.567823 -0.478516,0.976563 v 0.0039 c 0,0.283115 0.08231,0.52744 0.253907,0.703125 h 0.002 c 0.163391,0.163391 0.365409,0.285215 0.599609,0.363281 l 0.002,0.002 c 0.228474,0.0714 0.535653,0.142415 0.927735,0.21875 h -0.0059 c 0.01136,0.0029 0.02104,0.0057 0.02734,0.0078 l 0.01953,0.0059 h 0.02148 c 0.0027,0 0.0042,0.001 0.0078,0.002 h 0.0039 0.0039 c 0.019,0.0038 0.03863,0.0081 0.06055,0.01172 0.01957,0.0033 0.03708,0.0067 0.05273,0.0098 0.448773,0.09179 0.819366,0.199509 1.111328,0.322265 0.283767,0.117971 0.518566,0.308295 0.708984,0.576172 0.185031,0.252874 0.285157,0.611822 0.285157,1.085938 v 0.0098 c 0,0.437275 -0.103388,0.801921 -0.304688,1.105468 -0.201375,0.299475 -0.491926,0.529677 -0.884765,0.69336 -0.389546,0.160401 -0.868087,0.24414 -1.4375,0.24414 -0.353321,0 -0.687938,-0.0328 -1.001954,-0.09961 -0.313297,-0.06666 -0.605027,-0.168305 -0.876953,-0.300781 h -0.002 c -0.229861,-0.113639 -0.442365,-0.263304 -0.648437,-0.425782 l 0.49414,-0.607422 c 0.268541,0.213572 0.552561,0.397751 0.869141,0.511719 0.360004,0.129602 0.749351,0.195313 1.166016,0.195313 0.560536,0 1.009318,-0.101915 1.339843,-0.322266 v -0.002 c 0.330517,-0.224144 0.507813,-0.562262 0.507813,-0.966797 v -0.0059 c 0,-0.283425 -0.07686,-0.525692 -0.238282,-0.705078 -0.150449,-0.173597 -0.348519,-0.302086 -0.583984,-0.38086 h -0.002 c -0.218983,-0.07758 -0.496753,-0.14533 -0.832031,-0.207031 -0.0013,-4.46e-4 -0.0026,4.17e-4 -0.0039,0 -0.02168,-0.0068 -0.04225,-0.009 -0.0625,-0.0098 l -0.0078,-0.0039 -0.08789,-0.01563 -0.002,-0.002 c -0.497803,-0.08524 -0.902095,-0.179919 -1.208984,-0.283203 h -0.002 c -0.287872,-0.101547 -0.53226,-0.283172 -0.742188,-0.550781 -0.199947,-0.258393 -0.308594,-0.636537 -0.308594,-1.148438 v -0.0059 c 1e-6,-0.445457 0.09749,-0.813863 0.289063,-1.117188 0.195345,-0.307428 0.476393,-0.53973 0.855469,-0.703125 0.378913,-0.163324 0.840671,-0.248047 1.388672,-0.248047 z"
           id="path927" />
      </g>
      <path
         id="path919"
         style="color:#000000;font-style:normal;font-variant:normal;font-weight:normal;font-stretch:normal;font-size:medium;line-height:1.25;font-family:sans-serif;font-variant-ligatures:normal;font-variant-position:normal;font-variant-caps:normal;font-variant-numeric:normal;font-variant-alternates:normal;font-variant-east-asian:normal;font-feature-settings:normal;font-variation-settings:normal;text-indent:0;text-align:start;text-decoration:none;text-decoration-line:none;text-decoration-style:solid;text-decoration-color:#000000;letter-spacing:0px;word-spacing:0px;text-transform:none;writing-mode:lr-tb;direction:ltr;text-orientation:mixed;dominant-baseline:auto;baseline-shift:baseline;text-anchor:start;white-space:normal;shape-padding:0;shape-margin:0;inline-size:0;clip-rule:nonzero;display:inline;overflow:visible;visibility:visible;isolation:auto;mix-blend-mode:normal;color-interpolation:sRGB;color-interpolation-filters:linearRGB;solid-color:#000000;solid-opacity:1;vector-effect:none;fill:#fd7346;fill-opacity:1;fill-rule:nonzero;stroke:none;stroke-width:0.265;stroke-linecap:butt;stroke-linejoin:miter;stroke-miterlimit:4;stroke-dasharray:none;stroke-dashoffset:0;stroke-opacity:1;color-rendering:auto;image-rendering:auto;shape-rendering:auto;text-rendering:auto;enable-background:accumulate;stop-color:#000000;stop-opacity:1"
         d="m 21.146513,27.936279 c -0.523653,0 -0.985299,0.115412 -1.384929,0.346232 -0.399629,0.227375 -0.709691,0.551217 -0.930175,0.971517 -0.21704,0.416855 -0.325562,0.900896 -0.325562,1.452108 v 2.129069 c 0,0.551213 0.108522,1.036975 0.325562,1.457275 0.220484,0.416855 0.530546,0.740697 0.930175,0.971517 0.39963,0.227375 0.861276,0.341065 1.384929,0.341065 0.523652,0 0.985299,-0.11369 1.384928,-0.341065 0.39963,-0.23082 0.707969,-0.554662 0.925008,-0.971517 0.01524,-0.02906 0.0287,-0.0592 0.04289,-0.08888 l -0.982886,-0.451135 c -0.0021,0.0042 -0.0036,0.0087 -0.0057,0.01292 -0.127468,0.254936 -0.31006,0.45303 -0.547771,0.594279 -0.234265,0.137805 -0.50643,0.206706 -0.816487,0.206706 -0.310057,0 -0.583945,-0.0689 -0.821655,-0.206706 C 20.090593,34.218411 19.908,34.020317 19.777087,33.765381 19.649616,33.507 19.585885,33.208996 19.585885,32.871379 v -2.201416 c 0,-0.337619 0.06373,-0.633899 0.191202,-0.888835 0.130913,-0.258381 0.313506,-0.456476 0.547771,-0.594279 0.23771,-0.141253 0.511598,-0.211873 0.821655,-0.211873 0.310057,0 0.582222,0.07062 0.816487,0.211873 0.237711,0.137803 0.420303,0.335898 0.547771,0.594279 0.01184,0.02307 0.0223,0.04705 0.03307,0.0708 l 0.961181,-0.498161 c -0.01588,-0.03339 -0.03135,-0.06717 -0.04858,-0.09974 -0.217039,-0.4203 -0.525378,-0.744142 -0.925008,-0.971517 -0.399629,-0.23082 -0.861276,-0.346232 -1.384928,-0.346232 z" />
      <path
         id="path921"
         style="color:#000000;font-style:normal;font-variant:normal;font-weight:normal;font-stretch:normal;font-size:medium;line-height:1.25;font-family:sans-serif;font-variant-ligatures:normal;font-variant-position:normal;font-variant-caps:normal;font-variant-numeric:normal;font-variant-alternates:normal;font-variant-east-asian:normal;font-feature-settings:normal;font-variation-settings:normal;text-indent:0;text-align:start;text-decoration:none;text-decoration-line:none;text-decoration-style:solid;text-decoration-color:#000000;letter-spacing:0px;word-spacing:0px;text-transform:none;writing-mode:lr-tb;direction:ltr;text-orientation:mixed;dominant-baseline:auto;baseline-shift:baseline;text-anchor:start;white-space:normal;shape-padding:0;shape-margin:0;inline-size:0;clip-rule:nonzero;display:inline;overflow:visible;visibility:visible;isolation:auto;mix-blend-mode:normal;color-interpolation:sRGB;color-interpolation-filters:linearRGB;solid-color:#000000;solid-opacity:1;vector-effect:none;fill:#fd7346;fill-opacity:1;fill-rule:nonzero;stroke:none;stroke-width:0.265;stroke-linecap:butt;stroke-linejoin:miter;stroke-miterlimit:4;stroke-dasharray:none;stroke-dashoffset:0;stroke-opacity:1;color-rendering:auto;image-rendering:auto;shape-rendering:auto;text-rendering:auto;enable-background:accumulate;stop-color:#000000;stop-opacity:1"
         d="m 21.146513,27.804504 c -0.54312,-1e-6 -1.02974,0.119929 -1.451074,0.363286 -0.421026,0.239548 -0.749602,0.585018 -0.980819,1.025777 h -0.0016 c -0.228088,0.438073 -0.340031,0.944999 -0.340031,1.513603 v 2.128552 c 0,0.568602 0.112156,1.076454 0.340031,1.517737 h 0.0016 c 0.231228,0.437166 0.560414,0.78244 0.980819,1.02526 0.42125,0.239677 0.908244,0.359668 1.451074,0.359668 0.54283,0 1.029824,-0.119991 1.451074,-0.359668 0.420549,-0.242903 0.748887,-0.587745 0.976685,-1.02526 0.01624,-0.03096 0.03039,-0.06296 0.04547,-0.09457 L 23.379451,34.14882 c -0.0131,0.02732 -0.02576,0.0549 -0.03979,0.08165 h -0.0016 c -0.206282,0.396193 -0.494621,0.699551 -0.873331,0.91829 -0.37801,0.215073 -0.813792,0.324011 -1.318266,0.324011 -0.503771,0 -0.94062,-0.109534 -1.318266,-0.324011 -0.378434,-0.218579 -0.669328,-0.520327 -0.879016,-0.916223 v -0.0021 c -0.20566,-0.398957 -0.310575,-0.86112 -0.310575,-1.39423 V 30.70717 c 0,-0.533109 0.105128,-0.99533 0.310575,-1.390613 v -0.0021 c 0.209699,-0.399182 0.499136,-0.701263 0.876949,-0.916223 h 0.0021 v -0.0021 c 0.377878,-0.218237 0.814082,-0.327629 1.318266,-0.327629 0.504184,0 0.940341,0.109862 1.318266,0.328145 v 0.0016 c 0.37809,0.215119 0.667034,0.516725 0.873331,0.916223 h 0.0016 v 0.0021 c 0.01697,0.03208 0.03246,0.06524 0.04806,0.09819 l 0.234611,-0.121956 c -0.01584,-0.03319 -0.03093,-0.06679 -0.04806,-0.09922 v -0.0021 c -0.227756,-0.440424 -0.555936,-0.78432 -0.976685,-1.02371 -0.421335,-0.243357 -0.907954,-0.363286 -1.451074,-0.363286 z m 0,1.037146 c -0.330177,0 -0.629374,0.07631 -0.888835,0.230477 -0.256162,0.150683 -0.458424,0.370206 -0.599446,0.64854 v 0.0021 c -0.137931,0.275862 -0.205156,0.592935 -0.205156,0.947229 v 2.201416 c 0,0.354292 0.06756,0.673996 0.205156,0.952913 v 0.0021 c 0.141041,0.27466 0.342274,0.492658 0.597379,0.646472 l 0.0021,0.0021 c 0.259337,0.15034 0.559148,0.224276 0.888835,0.224276 0.329687,0 0.626349,-0.07352 0.882633,-0.224276 h 0.0021 v -0.0021 c 0.258443,-0.153567 0.460089,-0.371455 0.597897,-0.646472 v -0.0021 c 0.0027,-0.0054 0.0051,-0.01109 0.0078,-0.01654 l -0.240812,-0.110588 c -0.0013,0.0025 -0.0023,0.0052 -0.0036,0.0078 v 0.0021 c -0.117111,0.234223 -0.281088,0.410307 -0.497644,0.538986 -0.211895,0.124245 -0.458559,0.187585 -0.748275,0.187585 -0.290427,0 -0.539941,-0.06387 -0.756026,-0.189136 -0.211456,-0.12808 -0.373826,-0.304419 -0.494027,-0.537435 -0.117337,-0.237845 -0.177767,-0.514665 -0.177767,-0.835607 v -2.201416 c 0,-0.320221 0.05921,-0.594192 0.1757,-0.827857 v -0.0021 c 0.120735,-0.237722 0.286208,-0.414306 0.498161,-0.538985 0.215962,-0.128325 0.464022,-0.193787 0.753959,-0.193787 0.289937,0 0.536145,0.06537 0.748275,0.19327 h 0.0016 c 0.215515,0.124936 0.37895,0.302046 0.496094,0.539502 v 0.0015 c 0.0119,0.02318 0.02284,0.04734 0.03359,0.07131 l 0.235128,-0.121957 c -0.01048,-0.02284 -0.02062,-0.04592 -0.03204,-0.06821 v -0.0021 c -0.13744,-0.277792 -0.33958,-0.496085 -0.597897,-0.646473 -0.256401,-0.154596 -0.554522,-0.232544 -0.8847,-0.232544 z" />
    </g>
  </g>
</svg>
